<svg width="269" height="102" viewBox="0 0 269 102" fill="none" xmlns="http://www.w3.org/2000/svg">
<g filter="url(#filter0_d_3_59)">
<path d="M78.6228 9.1395C47.5009 23.0299 51.5174 44.377 57.4159 53.3142C63.7379 36.4284 82.9086 31.2679 91.7037 30.7984L80.9796 9.8907C80.3775 8.71693 79.1575 8.90083 78.6228 9.1395Z" fill="#753D4E"/>
</g>
<g filter="url(#filter1_d_3_59)">
<path d="M62.5855 5.13436C37.4984 27.1407 48.4981 46.198 57.1338 52.9758C57.5122 35.1964 74.1047 24.8543 82.3536 21.9056L65.0901 5.17414C64.1209 4.23484 63.0165 4.75624 62.5855 5.13436Z" fill="#824457"/>
</g>
<g filter="url(#filter2_d_3_59)">
<path d="M45.875 5.88292C29.2784 33.8511 46.1845 48.753 56.7121 52.708C51.1099 35.7755 63.4999 21.264 70.3951 16.1249L48.2822 5.20739C47.0408 4.59448 46.1601 5.40236 45.875 5.88292Z" fill="#8F4B5F"/>
</g>
<g filter="url(#filter3_d_3_59)">
<path d="M31.3252 11.8743C24.8438 43.0665 46.0014 52.3545 57.3904 53.0994C46.356 38.6712 53.3306 21.411 58.1973 14.5843L33.3995 10.5496C32.0073 10.323 31.4366 11.3383 31.3252 11.8743Z" fill="#9C5168"/>
</g>
<g filter="url(#filter4_d_3_59)">
<path d="M18.1406 21.6211C22.4088 52.9841 45.7469 55.7488 56.8824 53.2109C41.4959 42.6993 42.3725 24.3798 44.7341 16.534L19.6789 19.7768C18.2723 19.9589 18.0673 21.0822 18.1406 21.6211Z" fill="#A95870"/>
</g>
<g filter="url(#filter5_d_3_59)">
<path d="M9.69506 33.5927C24.295 62.0565 47.529 58.0275 57.3211 52.455C39.0886 46.889 33.7814 29.3035 33.4069 21.2065L10.5467 31.4095C9.26333 31.9823 9.4442 33.1036 9.69506 33.5927Z" fill="#B65F79"/>
</g>
<g filter="url(#filter6_d_3_59)">
<path d="M5.33196 48.8823C28.8345 71.6605 49.6902 61.2321 57.1803 53.1706C37.8865 53.0951 26.915 37.9649 23.841 30.4093L5.41363 46.5738C4.37911 47.4813 4.92813 48.4909 5.33196 48.8823Z" fill="#C26682"/>
</g>
<g filter="url(#filter7_d_3_59)">
<path d="M5.55165 63.6133C35.6562 78.4764 52.0921 62.6694 56.547 52.908C38.0806 58.3302 22.5187 47.1365 17.0461 40.8619L4.85536 61.4055C4.17096 62.5588 5.03439 63.3579 5.55165 63.6133Z" fill="#CF6D8A"/>
</g>
<g filter="url(#filter8_d_3_59)">
<path d="M12.2821 77.8063C46.0419 83.2993 56.4491 63.661 57.4327 53.1552C41.6013 63.5445 22.9724 57.383 15.6369 53.0035L10.876 75.9154C10.6088 77.2016 11.7021 77.712 12.2821 77.8063Z" fill="#DC7393"/>
</g>
<g filter="url(#filter9_d_3_59)">
<path d="M22.4583 89.4121C56.5686 84.9973 59.9284 63.45 57.3445 53.2282C45.6977 67.5676 25.8253 67.0413 17.3449 64.9857L20.48 88.023C20.656 89.3163 21.8722 89.488 22.4583 89.4121Z" fill="#E97A9B"/>
</g>
<g filter="url(#filter10_d_3_59)">
<path d="M35.5001 97.3545C66.622 83.464 62.6055 62.117 56.707 53.1797C50.385 70.0655 31.2143 75.2261 22.4192 75.6956L33.1433 96.6033C33.7454 97.777 34.9654 97.5931 35.5001 97.3545Z" fill="#F681A4"/>
</g>
<g filter="url(#filter11_d_3_59)">
<ellipse cx="1.75678" cy="1.64918" rx="1.75678" ry="1.64918" transform="matrix(0.913174 -0.407571 0.456394 0.889778 54.7513 52.2495)" fill="#FEB6B9"/>
</g>
<path d="M63.1352 74.3205C63.2952 73.8405 63.7592 72.7365 64.5272 71.0085C65.3272 69.3125 66.3832 67.0405 67.6952 64.1925C69.0392 61.3125 70.6232 57.9045 72.4472 53.9685C74.2712 50.0325 76.3032 45.6005 78.5432 40.6725C78.6712 40.4165 78.7672 40.1445 78.8312 39.8565C78.9272 39.5685 78.9752 39.3125 78.9752 39.0885C78.9752 38.7685 78.8792 38.5125 78.6872 38.3205C78.4952 38.1285 78.1272 38.0325 77.5832 38.0325C76.2392 38.0325 75.1352 38.4485 74.2712 39.2805C73.4392 40.0805 72.8152 41.0725 72.3992 42.2565C72.0152 43.4405 71.8232 44.6085 71.8232 45.7605C71.8232 46.0485 71.8392 46.3845 71.8712 46.7685C71.9032 47.1525 71.9512 47.5845 72.0152 48.0645C71.2472 48.0645 70.6072 47.8405 70.0952 47.3925C69.6152 46.9125 69.2472 46.3365 68.9912 45.6645C68.7352 44.9605 68.6072 44.3045 68.6072 43.6965C68.6072 42.6725 68.8952 41.6805 69.4712 40.7205C70.0792 39.7605 70.8632 38.8965 71.8232 38.1285C72.7832 37.3285 73.8392 36.7045 74.9912 36.2565C76.1752 35.8085 77.3432 35.5845 78.4952 35.5845C79.6792 35.5845 80.6872 35.9205 81.5192 36.5925C82.3512 37.2325 82.9912 38.4165 83.4392 40.1445C83.8872 41.8405 84.1112 44.2885 84.1112 47.4885C84.1112 49.5685 84.0312 51.6805 83.8712 53.8245C83.7432 55.9365 83.5992 57.9205 83.4392 59.7765C83.2792 61.6325 83.1992 63.2165 83.1992 64.5285C83.8392 62.6405 84.6232 60.6405 85.5512 58.5285C86.5112 56.3845 87.5352 54.2725 88.6232 52.1925C89.7112 50.0805 90.7832 48.0965 91.8392 46.2405C92.8952 44.3845 93.8392 42.7685 94.6712 41.3925C95.5352 39.9845 96.1912 38.9445 96.6392 38.2725C97.0872 37.5685 97.4872 37.0405 97.8392 36.6885C98.1912 36.3365 98.6712 36.1605 99.2792 36.1605C99.7272 36.1605 100.431 36.3365 101.391 36.6885C101.103 37.2965 100.767 38.2725 100.383 39.6165C99.9992 40.9285 99.5832 42.4645 99.1352 44.2245C98.6552 46.1445 98.1752 48.2565 97.6952 50.5605C97.2152 52.8325 96.7832 55.1365 96.3992 57.4725C96.0152 59.8085 95.6952 62.0325 95.4392 64.1445C95.2152 66.2245 95.1032 68.0645 95.1032 69.6645C95.1032 70.4965 95.1352 71.1525 95.1992 71.6325C95.2952 72.1125 95.4072 72.5285 95.5352 72.8805C95.6952 73.2645 95.8712 73.7445 96.0632 74.3205C94.6872 74.3205 93.6312 74.1125 92.8952 73.6965C92.1912 73.2805 91.7112 72.6085 91.4552 71.6805C91.2312 70.7845 91.1192 69.5845 91.1192 68.0805C91.1192 64.5285 91.5192 60.8005 92.3192 56.8965C93.1512 52.9605 94.1112 48.9125 95.1992 44.7525C94.3032 46.0325 93.3752 47.5525 92.4152 49.3125C91.4552 51.0725 90.5112 52.9285 89.5832 54.8805C88.6552 56.8325 87.7752 58.7685 86.9432 60.6885C86.1112 62.5765 85.3752 64.3365 84.7352 65.9685C84.0952 67.5685 83.5992 68.9125 83.2472 70.0005C82.9592 70.0965 82.7512 70.1605 82.6232 70.1925C82.5272 70.2245 82.3992 70.2405 82.2392 70.2405C81.1192 70.2405 80.3992 69.5685 80.0792 68.2245C79.7912 66.8485 79.6472 64.9765 79.6472 62.6085C79.6472 61.3605 79.6632 60.0325 79.6952 58.6245C79.7272 57.1845 79.7752 55.7285 79.8392 54.2565C79.9032 52.7525 79.9512 51.2645 79.9832 49.7925C80.0152 48.3205 80.0312 46.9125 80.0312 45.5685C80.0312 45.0885 80.0152 44.6085 79.9832 44.1285C79.9832 43.6485 79.9832 43.1845 79.9832 42.7365C77.5512 48.4005 75.4872 53.2485 73.7912 57.2805C72.1272 61.2805 70.7032 64.5445 69.5192 67.0725C68.3352 69.5685 67.2472 71.3925 66.2552 72.5445C65.2632 73.7285 64.2232 74.3205 63.1352 74.3205ZM103.739 74.3205C102.779 73.8085 102.171 73.2805 101.915 72.7365C101.659 72.1925 101.531 71.7285 101.531 71.3445C101.531 70.4805 101.835 69.3285 102.443 67.8885C103.083 66.4165 103.931 64.7365 104.987 62.8485C106.043 60.9605 107.243 58.9925 108.587 56.9445C107.595 56.8805 106.651 56.8325 105.755 56.8005C104.859 56.7685 103.707 56.7525 102.299 56.7525H101.531C101.979 55.6005 102.683 54.8005 103.643 54.3525C104.635 53.8725 105.787 53.6325 107.099 53.6325C107.643 53.6325 108.203 53.6645 108.779 53.7285C109.387 53.7925 110.011 53.8565 110.651 53.9205C112.251 51.6165 113.819 49.4405 115.355 47.3925C116.923 45.3445 118.395 43.5045 119.771 41.8725C121.179 40.2085 122.427 38.8485 123.515 37.7925C125.051 36.2565 126.171 35.4885 126.875 35.4885C127.323 35.4885 127.819 35.6645 128.363 36.0165C128.939 36.3685 129.531 36.8165 130.139 37.3605C129.819 37.6165 129.403 38.2725 128.891 39.3285C128.411 40.3845 127.883 41.7285 127.307 43.3605C126.763 44.9605 126.203 46.7205 125.627 48.6405C125.083 50.5605 124.587 52.5125 124.139 54.4965C123.691 56.4805 123.323 58.3845 123.035 60.2085C122.779 62.0005 122.651 63.5845 122.651 64.9605C122.651 66.2405 122.779 67.2005 123.035 67.8405C123.291 68.4485 123.723 68.7525 124.331 68.7525C125.067 68.7525 125.979 68.1925 127.067 67.0725C128.155 65.9525 129.371 64.1285 130.715 61.6005L131.579 62.5125C130.587 65.1365 129.291 67.2965 127.691 68.9925C126.123 70.6885 124.443 71.5365 122.651 71.5365C121.115 71.5365 120.027 70.8805 119.387 69.5685C118.747 68.2245 118.427 66.4005 118.427 64.0965C118.427 63.3605 118.475 62.5285 118.571 61.6005C118.667 60.6725 118.827 59.5205 119.051 58.1445C117.643 57.9205 116.395 57.7445 115.307 57.6165C114.219 57.4885 113.179 57.3605 112.187 57.2325C110.651 59.9525 109.163 62.7685 107.723 65.6805C106.283 68.5925 104.955 71.4725 103.739 74.3205ZM119.531 55.7925C119.947 53.9045 120.427 52.0005 120.971 50.0805C121.547 48.1285 122.139 46.2725 122.747 44.5125C123.387 42.7205 124.011 41.1205 124.619 39.7125C123.659 40.4805 122.587 41.5845 121.403 43.0245C120.219 44.4645 118.971 46.1605 117.659 48.1125C116.379 50.0645 115.067 52.1925 113.723 54.4965C114.683 54.6885 115.643 54.8965 116.603 55.1205C117.563 55.3445 118.539 55.5685 119.531 55.7925ZM156.053 75.9525C155.285 75.9525 154.405 75.5365 153.413 74.7045C152.421 73.8725 151.381 72.7845 150.293 71.4405C149.237 70.0965 148.181 68.6245 147.125 67.0245C146.101 65.3925 145.125 63.7605 144.197 62.1285C143.269 60.4965 142.485 59.0245 141.845 57.7125C140.981 60.6565 140.149 63.5685 139.349 66.4485C138.581 69.2965 137.845 71.9365 137.141 74.3685C136.213 74.3685 135.333 74.1125 134.501 73.6005C133.701 73.0885 133.301 72.4165 133.301 71.5845C133.301 71.2325 133.381 70.8165 133.541 70.3365C133.701 69.8565 133.845 69.3925 133.973 68.9445C134.901 66.1605 135.733 63.6805 136.469 61.5045C137.205 59.2965 137.893 57.2805 138.533 55.4565C139.205 53.6005 139.877 51.7765 140.549 49.9845C141.253 48.1605 142.021 46.2565 142.853 44.2725C143.685 42.2885 144.645 40.0485 145.733 37.5525C144.485 37.8085 143.381 38.1445 142.421 38.5605C141.493 38.9765 140.725 39.3445 140.117 39.6645C139.541 39.9845 139.141 40.1445 138.917 40.1445C138.757 40.1445 138.517 40.0485 138.197 39.8565C137.877 39.6325 137.589 39.3765 137.333 39.0885C137.109 38.7685 136.997 38.4965 136.997 38.2725C137.893 37.9205 138.933 37.5365 140.117 37.1205C141.333 36.7045 142.661 36.3525 144.101 36.0645C145.541 35.7445 147.029 35.5845 148.565 35.5845C150.005 35.5845 151.493 35.7605 153.029 36.1125C154.565 36.4325 155.989 36.9605 157.301 37.6965C158.613 38.4325 159.669 39.3925 160.469 40.5765C161.269 41.7605 161.669 43.1845 161.669 44.8485C161.669 46.3525 161.333 47.6645 160.661 48.7845C159.989 49.8725 159.093 50.8005 157.973 51.5685C156.853 52.3365 155.621 52.9605 154.277 53.4405C152.933 53.9205 151.573 54.3045 150.197 54.5925C148.821 54.8485 147.541 55.0245 146.357 55.1205C145.205 55.2165 144.245 55.2805 143.477 55.3125C144.501 56.9445 145.509 58.5285 146.501 60.0645C147.493 61.6005 148.549 63.1365 149.669 64.6725C150.821 66.1765 152.149 67.6965 153.653 69.2325C155.157 70.7365 156.933 72.2725 158.981 73.8405C158.853 74.4805 158.453 74.9925 157.781 75.3765C157.141 75.7605 156.565 75.9525 156.053 75.9525ZM142.949 53.8725C144.741 53.7445 146.501 53.4565 148.229 53.0085C149.989 52.5605 151.573 51.9365 152.981 51.1365C154.421 50.3365 155.557 49.3445 156.389 48.1605C157.253 46.9445 157.685 45.5205 157.685 43.8885C157.685 42.2245 157.269 40.9285 156.437 40.0005C155.605 39.0405 154.533 38.3525 153.221 37.9365C151.909 37.5205 150.533 37.2965 149.093 37.2645C148.005 39.4085 146.949 41.9365 145.925 44.8485C144.901 47.7285 143.909 50.7365 142.949 53.8725ZM160.527 74.3685C160.655 72.9925 161.103 71.9845 161.871 71.3445C162.639 70.7365 163.631 70.3365 164.847 70.1445C166.063 69.9525 167.375 69.8565 168.783 69.8565C169.359 68.6405 169.903 67.1845 170.415 65.4885C170.959 63.7605 171.471 61.9205 171.951 59.9685C172.463 58.0165 172.943 56.0325 173.391 54.0165C173.871 51.9685 174.319 50.0005 174.735 48.1125C175.151 46.1925 175.551 44.4485 175.935 42.8805C176.319 41.3125 176.687 40.0165 177.039 38.9925C175.407 39.0245 173.951 39.0885 172.671 39.1845C171.423 39.2805 170.239 39.4085 169.119 39.5685C167.999 39.7285 166.847 39.9205 165.663 40.1445C166.015 38.5445 167.023 37.3925 168.687 36.6885C170.351 35.9845 172.895 35.6325 176.319 35.6325C178.015 35.6325 179.775 35.6965 181.599 35.8245C183.423 35.9525 185.103 36.0965 186.639 36.2565C188.175 36.4165 189.375 36.5605 190.239 36.6885C189.151 37.7125 188.127 38.3525 187.167 38.6085C186.207 38.8325 185.375 38.9445 184.671 38.9445C183.615 38.9445 182.671 38.9445 181.839 38.9445C181.039 38.9445 180.255 38.9605 179.487 38.9925C179.263 40.0805 179.007 41.4085 178.719 42.9765C178.463 44.5445 178.159 46.2245 177.807 48.0165C177.487 49.8085 177.167 51.6005 176.847 53.3925C176.527 55.1845 176.207 56.8645 175.887 58.4325C175.567 59.9685 175.279 61.2485 175.023 62.2725C174.607 63.9365 174.111 65.4565 173.535 66.8325C172.959 68.2085 172.303 69.2485 171.567 69.9525C173.263 70.0805 174.975 70.2405 176.703 70.4325C178.431 70.6245 180.335 70.7525 182.415 70.8165C181.135 72.0005 179.919 72.7365 178.767 73.0245C177.615 73.3445 176.671 73.5045 175.935 73.5045C173.791 73.5045 171.999 73.5045 170.559 73.5045C169.151 73.5365 167.919 73.5685 166.863 73.6005C165.807 73.6645 164.783 73.7605 163.791 73.8885C162.831 74.0165 161.743 74.1765 160.527 74.3685ZM206.507 74.3205C205.323 74.3205 203.995 74.0805 202.523 73.6005C201.051 73.1205 199.531 72.5445 197.963 71.8725C196.427 71.2005 194.923 70.5605 193.451 69.9525C192.651 70.8165 191.787 71.4885 190.859 71.9685C189.931 72.4485 188.939 72.6885 187.883 72.6885C186.763 72.6885 185.803 72.4325 185.003 71.9205C184.171 71.4405 183.547 70.8485 183.131 70.1445C182.683 69.4405 182.459 68.8005 182.459 68.2245C182.459 67.5845 182.747 67.0245 183.323 66.5445C183.899 66.0645 184.923 65.8245 186.395 65.8245C187.259 65.8245 188.203 65.9205 189.227 66.1125C190.283 66.2725 191.355 66.4965 192.443 66.7845C193.179 65.5045 193.851 64.0005 194.459 62.2725C195.099 60.5445 195.723 58.7365 196.331 56.8485C196.939 54.9285 197.547 53.0565 198.155 51.2325C196.555 50.6885 195.323 49.9365 194.459 48.9765C193.595 47.9845 193.163 46.9925 193.163 46.0005C193.163 45.3605 193.323 44.7365 193.643 44.1285C193.963 43.4885 194.427 42.9605 195.035 42.5445C195.643 42.0965 196.363 41.8725 197.195 41.8725C196.779 42.3845 196.507 42.9605 196.379 43.6005C196.283 44.2405 196.235 44.7525 196.235 45.1365C196.235 46.1925 196.475 47.0885 196.955 47.8245C197.435 48.5605 198.027 49.1365 198.731 49.5525C199.339 47.7285 199.979 45.9845 200.651 44.3205C201.355 42.6245 202.123 41.1365 202.955 39.8565C203.819 38.5445 204.763 37.5045 205.787 36.7365C206.843 35.9685 208.027 35.5845 209.339 35.5845C210.075 35.5845 210.843 35.7445 211.643 36.0645C212.475 36.3525 213.179 36.8645 213.755 37.6005C214.363 38.3365 214.667 39.3925 214.667 40.7685C214.667 41.8565 214.427 43.0245 213.947 44.2725C213.499 45.5205 212.779 46.7205 211.787 47.8725C210.795 48.9925 209.515 49.9365 207.947 50.7045C206.411 51.4405 204.539 51.8405 202.331 51.9045C202.267 51.9045 202.187 51.9045 202.091 51.9045C202.027 51.9045 201.963 51.9045 201.899 51.9045C201.291 53.7605 200.651 55.6325 199.979 57.5205C199.307 59.4085 198.587 61.2165 197.819 62.9445C197.051 64.6725 196.219 66.2085 195.323 67.5525C196.571 67.9045 197.947 68.3045 199.451 68.7525C200.987 69.2005 202.507 69.5845 204.011 69.9045C205.547 70.1925 206.891 70.3365 208.043 70.3365C208.811 70.3365 209.515 70.2565 210.155 70.0965C210.827 69.9045 211.531 69.6325 212.267 69.2805C211.627 71.0725 210.827 72.3525 209.867 73.1205C208.939 73.9205 207.819 74.3205 206.507 74.3205ZM187.403 70.9125C188.235 70.9125 188.907 70.7205 189.419 70.3365C189.931 69.9845 190.443 69.5365 190.955 68.9925C189.963 68.6405 189.035 68.3525 188.171 68.1285C187.307 67.8725 186.555 67.7445 185.915 67.7445C185.307 67.7445 184.875 67.8565 184.619 68.0805C184.331 68.3045 184.187 68.5765 184.187 68.8965C184.187 69.4085 184.507 69.8725 185.147 70.2885C185.787 70.7045 186.539 70.9125 187.403 70.9125ZM202.427 50.3205C203.835 50.2245 205.083 49.7765 206.171 48.9765C207.259 48.1765 208.187 47.2165 208.955 46.0965C209.723 44.9765 210.299 43.8405 210.683 42.6885C211.099 41.5045 211.307 40.4805 211.307 39.6165C211.307 38.7845 211.147 38.2245 210.827 37.9365C210.507 37.6165 210.139 37.4565 209.723 37.4565C208.795 37.4565 207.915 38.0485 207.083 39.2325C206.251 40.4165 205.451 41.9845 204.683 43.9365C203.947 45.8565 203.195 47.9845 202.427 50.3205ZM213.964 74.3685C214.092 72.9925 214.54 71.9845 215.308 71.3445C216.076 70.7365 217.068 70.3365 218.284 70.1445C219.5 69.9525 220.812 69.8565 222.22 69.8565C222.796 68.6405 223.34 67.1845 223.852 65.4885C224.396 63.7605 224.908 61.9205 225.388 59.9685C225.9 58.0165 226.38 56.0325 226.828 54.0165C227.308 51.9685 227.756 50.0005 228.172 48.1125C228.588 46.1925 228.988 44.4485 229.372 42.8805C229.756 41.3125 230.124 40.0165 230.476 38.9925C228.844 39.0245 227.388 39.0885 226.108 39.1845C224.86 39.2805 223.676 39.4085 222.556 39.5685C221.436 39.7285 220.284 39.9205 219.1 40.1445C219.452 38.5445 220.46 37.3925 222.124 36.6885C223.788 35.9845 226.332 35.6325 229.756 35.6325C231.452 35.6325 233.212 35.6965 235.036 35.8245C236.86 35.9525 238.54 36.0965 240.076 36.2565C241.612 36.4165 242.812 36.5605 243.676 36.6885C242.588 37.7125 241.564 38.3525 240.604 38.6085C239.644 38.8325 238.812 38.9445 238.108 38.9445C237.052 38.9445 236.108 38.9445 235.276 38.9445C234.476 38.9445 233.692 38.9605 232.924 38.9925C232.7 40.0805 232.444 41.4085 232.156 42.9765C231.9 44.5445 231.596 46.2245 231.244 48.0165C230.924 49.8085 230.604 51.6005 230.284 53.3925C229.964 55.1845 229.644 56.8645 229.324 58.4325C229.004 59.9685 228.716 61.2485 228.46 62.2725C228.044 63.9365 227.548 65.4565 226.972 66.8325C226.396 68.2085 225.74 69.2485 225.004 69.9525C226.7 70.0805 228.412 70.2405 230.14 70.4325C231.868 70.6245 233.772 70.7525 235.852 70.8165C234.572 72.0005 233.356 72.7365 232.204 73.0245C231.052 73.3445 230.108 73.5045 229.372 73.5045C227.228 73.5045 225.436 73.5045 223.996 73.5045C222.588 73.5365 221.356 73.5685 220.3 73.6005C219.244 73.6645 218.22 73.7605 217.228 73.8885C216.268 74.0165 215.18 74.1765 213.964 74.3685ZM240.802 74.3205C239.842 73.8085 239.234 73.2805 238.978 72.7365C238.722 72.1925 238.594 71.7285 238.594 71.3445C238.594 70.4805 238.898 69.3285 239.506 67.8885C240.146 66.4165 240.994 64.7365 242.05 62.8485C243.106 60.9605 244.306 58.9925 245.65 56.9445C244.658 56.8805 243.714 56.8325 242.818 56.8005C241.922 56.7685 240.77 56.7525 239.362 56.7525H238.594C239.042 55.6005 239.746 54.8005 240.706 54.3525C241.698 53.8725 242.85 53.6325 244.162 53.6325C244.706 53.6325 245.266 53.6645 245.842 53.7285C246.45 53.7925 247.074 53.8565 247.714 53.9205C249.314 51.6165 250.882 49.4405 252.418 47.3925C253.986 45.3445 255.458 43.5045 256.834 41.8725C258.242 40.2085 259.49 38.8485 260.578 37.7925C262.114 36.2565 263.234 35.4885 263.938 35.4885C264.386 35.4885 264.882 35.6645 265.426 36.0165C266.002 36.3685 266.594 36.8165 267.202 37.3605C266.882 37.6165 266.466 38.2725 265.954 39.3285C265.474 40.3845 264.946 41.7285 264.37 43.3605C263.826 44.9605 263.266 46.7205 262.69 48.6405C262.146 50.5605 261.65 52.5125 261.202 54.4965C260.754 56.4805 260.386 58.3845 260.098 60.2085C259.842 62.0005 259.714 63.5845 259.714 64.9605C259.714 66.2405 259.842 67.2005 260.098 67.8405C260.354 68.4485 260.786 68.7525 261.394 68.7525C262.13 68.7525 263.042 68.1925 264.13 67.0725C265.218 65.9525 266.434 64.1285 267.778 61.6005L268.642 62.5125C267.65 65.1365 266.354 67.2965 264.754 68.9925C263.186 70.6885 261.506 71.5365 259.714 71.5365C258.178 71.5365 257.09 70.8805 256.45 69.5685C255.81 68.2245 255.49 66.4005 255.49 64.0965C255.49 63.3605 255.538 62.5285 255.634 61.6005C255.73 60.6725 255.89 59.5205 256.114 58.1445C254.706 57.9205 253.458 57.7445 252.37 57.6165C251.282 57.4885 250.242 57.3605 249.25 57.2325C247.714 59.9525 246.226 62.7685 244.786 65.6805C243.346 68.5925 242.018 71.4725 240.802 74.3205ZM256.594 55.7925C257.01 53.9045 257.49 52.0005 258.034 50.0805C258.61 48.1285 259.202 46.2725 259.81 44.5125C260.45 42.7205 261.074 41.1205 261.682 39.7125C260.722 40.4805 259.65 41.5845 258.466 43.0245C257.282 44.4645 256.034 46.1605 254.722 48.1125C253.442 50.0645 252.13 52.1925 250.786 54.4965C251.746 54.6885 252.706 54.8965 253.666 55.1205C254.626 55.3445 255.602 55.5685 256.594 55.7925Z" fill="#F681A4"/>
<path d="M68.96 95.9698C67.984 95.9698 67.248 95.8098 66.752 95.4898C66.256 95.1698 66 94.6418 65.984 93.9058C65.984 93.7458 66.072 93.6658 66.248 93.6658C66.392 93.6658 66.608 93.7058 66.896 93.7858C67.2 93.8498 67.768 93.8818 68.6 93.8818C70.008 93.8818 71.304 93.7378 72.488 93.4498C73.672 93.1458 74.696 92.7458 75.56 92.2498C76.44 91.7378 77.12 91.1698 77.6 90.5458C78.08 89.9058 78.32 89.2418 78.32 88.5538C78.32 87.9298 78.128 87.4338 77.744 87.0658C77.376 86.6818 76.88 86.3938 76.256 86.2018C75.648 85.9938 74.976 85.8578 74.24 85.7938C73.52 85.7298 72.808 85.6978 72.104 85.6978C71.8 85.6978 71.496 85.7058 71.192 85.7218C70.888 85.7218 70.6 85.7218 70.328 85.7218C69.976 86.9378 69.632 88.1938 69.296 89.4898C68.96 90.7858 68.608 92.0578 68.24 93.3058C67.76 93.3058 67.344 93.1778 66.992 92.9218C66.64 92.6658 66.464 92.3538 66.464 91.9858C66.464 91.8418 66.488 91.6578 66.536 91.4338C66.6 91.1938 66.688 90.9138 66.8 90.5938C66.896 90.2898 67.056 89.7858 67.28 89.0818C67.52 88.3778 67.8 87.5458 68.12 86.5858C68.44 85.6258 68.792 84.6178 69.176 83.5618C69.576 82.4898 69.984 81.4418 70.4 80.4178C70.832 79.3938 71.256 78.4738 71.672 77.6578C71.032 77.8018 70.504 77.9698 70.088 78.1618C69.672 78.3538 69.344 78.5218 69.104 78.6658C68.864 78.8098 68.68 78.8818 68.552 78.8818C68.456 78.8818 68.328 78.8258 68.168 78.7138C68.024 78.6018 67.888 78.4738 67.76 78.3298C67.648 78.1858 67.592 78.0578 67.592 77.9458C68.456 77.5938 69.352 77.2818 70.28 77.0098C71.208 76.7378 72.328 76.6018 73.64 76.6018C74.216 76.6018 74.848 76.6498 75.536 76.7458C76.224 76.8258 76.88 77.0018 77.504 77.2738C78.128 77.5298 78.64 77.9218 79.04 78.4498C79.456 78.9618 79.664 79.6498 79.664 80.5138C79.664 81.2018 79.512 81.8018 79.208 82.3138C78.92 82.8098 78.528 83.2418 78.032 83.6098C77.536 83.9618 76.992 84.2578 76.4 84.4978C75.808 84.7218 75.224 84.9058 74.648 85.0498C75.64 85.1778 76.464 85.3858 77.12 85.6738C77.792 85.9458 78.32 86.2658 78.704 86.6338C79.104 87.0018 79.384 87.3858 79.544 87.7858C79.72 88.1698 79.808 88.5458 79.808 88.9138C79.808 89.8578 79.56 90.7058 79.064 91.4578C78.568 92.2098 77.912 92.8658 77.096 93.4258C76.296 93.9858 75.408 94.4498 74.432 94.8178C73.472 95.2018 72.512 95.4898 71.552 95.6818C70.592 95.8738 69.728 95.9698 68.96 95.9698ZM70.568 84.8098C71.464 84.7778 72.344 84.6738 73.208 84.4978C74.072 84.3218 74.848 84.0658 75.536 83.7298C76.24 83.3778 76.8 82.9298 77.216 82.3858C77.632 81.8258 77.84 81.1378 77.84 80.3218C77.84 79.5538 77.632 78.9618 77.216 78.5458C76.8 78.1298 76.256 77.8418 75.584 77.6818C74.912 77.5218 74.192 77.4418 73.424 77.4418C73.408 77.4418 73.392 77.4418 73.376 77.4418C73.36 77.4418 73.344 77.4418 73.328 77.4418C72.784 78.5138 72.288 79.6818 71.84 80.9458C71.392 82.1938 70.968 83.4818 70.568 84.8098ZM92.3309 96.7858C91.9469 96.7858 91.5069 96.5778 91.0109 96.1618C90.5149 95.7458 89.9949 95.2018 89.4509 94.5298C88.9229 93.8578 88.3949 93.1218 87.8669 92.3218C87.3549 91.5058 86.8669 90.6898 86.4029 89.8738C85.9389 89.0578 85.5469 88.3218 85.2269 87.6658C84.7949 89.1378 84.3789 90.5938 83.9789 92.0338C83.5949 93.4578 83.2269 94.7778 82.8749 95.9938C82.4109 95.9938 81.9709 95.8658 81.5549 95.6098C81.1549 95.3538 80.9549 95.0178 80.9549 94.6018C80.9549 94.4258 80.9949 94.2178 81.0749 93.9778C81.1549 93.7378 81.2269 93.5058 81.2909 93.2818C81.7549 91.8898 82.1709 90.6498 82.5389 89.5618C82.9069 88.4578 83.2509 87.4498 83.5709 86.5378C83.9069 85.6098 84.2429 84.6978 84.5789 83.8018C84.9309 82.8898 85.3149 81.9378 85.7309 80.9458C86.1469 79.9538 86.6269 78.8338 87.1709 77.5858C86.5469 77.7138 85.9949 77.8818 85.5149 78.0898C85.0509 78.2978 84.6669 78.4818 84.3629 78.6418C84.0749 78.8018 83.8749 78.8818 83.7629 78.8818C83.6829 78.8818 83.5629 78.8338 83.4029 78.7378C83.2429 78.6258 83.0989 78.4978 82.9709 78.3538C82.8589 78.1938 82.8029 78.0578 82.8029 77.9458C83.2509 77.7698 83.7709 77.5778 84.3629 77.3698C84.9709 77.1618 85.6349 76.9858 86.3549 76.8418C87.0749 76.6818 87.8189 76.6018 88.5869 76.6018C89.3069 76.6018 90.0509 76.6898 90.8189 76.8658C91.5869 77.0258 92.2989 77.2898 92.9549 77.6578C93.6109 78.0258 94.1389 78.5058 94.5389 79.0978C94.9389 79.6898 95.1389 80.4018 95.1389 81.2338C95.1389 81.9858 94.9709 82.6418 94.6349 83.2018C94.2989 83.7458 93.8509 84.2098 93.2909 84.5938C92.7309 84.9778 92.1149 85.2898 91.4429 85.5298C90.7709 85.7698 90.0909 85.9618 89.4029 86.1058C88.7149 86.2338 88.0749 86.3218 87.4829 86.3698C86.9069 86.4178 86.4269 86.4498 86.0429 86.4658C86.5549 87.2818 87.0589 88.0738 87.5549 88.8418C88.0509 89.6098 88.5789 90.3778 89.1389 91.1458C89.7149 91.8978 90.3789 92.6578 91.1309 93.4258C91.8829 94.1778 92.7709 94.9458 93.7949 95.7298C93.7309 96.0498 93.5309 96.3058 93.1949 96.4978C92.8749 96.6898 92.5869 96.7858 92.3309 96.7858ZM85.7789 85.7458C86.6749 85.6818 87.5549 85.5378 88.4189 85.3138C89.2989 85.0898 90.0909 84.7778 90.7949 84.3778C91.5149 83.9778 92.0829 83.4818 92.4989 82.8898C92.9309 82.2818 93.1469 81.5698 93.1469 80.7538C93.1469 79.9218 92.9389 79.2738 92.5229 78.8098C92.1069 78.3298 91.5709 77.9858 90.9149 77.7778C90.2589 77.5698 89.5709 77.4578 88.8509 77.4418C88.3069 78.5138 87.7789 79.7778 87.2669 81.2338C86.7549 82.6738 86.2589 84.1778 85.7789 85.7458ZM95.8696 95.9698C95.3896 95.7138 95.0856 95.4498 94.9576 95.1778C94.8296 94.9058 94.7656 94.6738 94.7656 94.4818C94.7656 94.0498 94.9176 93.4738 95.2216 92.7538C95.5416 92.0178 95.9656 91.1778 96.4936 90.2338C97.0216 89.2898 97.6216 88.3058 98.2936 87.2818C97.7976 87.2498 97.3256 87.2258 96.8776 87.2098C96.4296 87.1938 95.8536 87.1858 95.1496 87.1858H94.7656C94.9896 86.6098 95.3416 86.2098 95.8216 85.9858C96.3176 85.7458 96.8936 85.6258 97.5496 85.6258C97.8216 85.6258 98.1016 85.6418 98.3896 85.6738C98.6936 85.7058 99.0056 85.7378 99.3256 85.7698C100.126 84.6178 100.91 83.5298 101.678 82.5058C102.462 81.4818 103.198 80.5618 103.886 79.7458C104.59 78.9138 105.214 78.2338 105.758 77.7058C106.526 76.9378 107.086 76.5538 107.438 76.5538C107.662 76.5538 107.91 76.6418 108.182 76.8178C108.47 76.9938 108.766 77.2178 109.07 77.4898C108.91 77.6178 108.702 77.9458 108.446 78.4738C108.206 79.0018 107.942 79.6738 107.654 80.4898C107.382 81.2898 107.102 82.1698 106.814 83.1298C106.542 84.0898 106.294 85.0658 106.07 86.0578C105.846 87.0498 105.662 88.0018 105.518 88.9138C105.39 89.8098 105.326 90.6018 105.326 91.2898C105.326 91.9298 105.39 92.4098 105.518 92.7298C105.646 93.0338 105.862 93.1858 106.166 93.1858C106.534 93.1858 106.99 92.9058 107.534 92.3458C108.078 91.7858 108.686 90.8738 109.358 89.6098L109.79 90.0658C109.294 91.3778 108.646 92.4578 107.846 93.3058C107.062 94.1538 106.222 94.5778 105.326 94.5778C104.558 94.5778 104.014 94.2498 103.694 93.5938C103.374 92.9218 103.214 92.0098 103.214 90.8578C103.214 90.4898 103.238 90.0738 103.286 89.6098C103.334 89.1458 103.414 88.5698 103.526 87.8818C102.822 87.7698 102.198 87.6818 101.654 87.6178C101.11 87.5538 100.59 87.4898 100.094 87.4258C99.3256 88.7858 98.5816 90.1938 97.8616 91.6498C97.1416 93.1058 96.4776 94.5458 95.8696 95.9698ZM103.766 86.7058C103.974 85.7618 104.214 84.8098 104.486 83.8498C104.774 82.8738 105.07 81.9458 105.374 81.0658C105.694 80.1698 106.006 79.3698 106.31 78.6658C105.83 79.0498 105.294 79.6018 104.702 80.3218C104.11 81.0418 103.486 81.8898 102.83 82.8658C102.19 83.8418 101.534 84.9058 100.862 86.0578C101.342 86.1538 101.822 86.2578 102.302 86.3698C102.782 86.4818 103.27 86.5938 103.766 86.7058ZM110.946 95.9698C111.186 95.1698 111.458 94.2978 111.762 93.3538C112.066 92.3938 112.418 91.2738 112.818 89.9938C113.218 88.6978 113.682 87.1618 114.21 85.3858C114.738 83.6098 115.346 81.5138 116.034 79.0978C116.05 79.0498 116.082 78.9298 116.13 78.7378C116.178 78.5458 116.202 78.3538 116.202 78.1618C116.202 78.0338 116.178 77.9458 116.13 77.8978C116.098 77.8498 116.018 77.8258 115.89 77.8258C115.554 77.8258 115.226 77.9618 114.906 78.2338C114.602 78.5058 114.322 78.8498 114.066 79.2658C113.826 79.6658 113.634 80.0898 113.49 80.5378C113.362 80.9698 113.298 81.3618 113.298 81.7138C113.298 82.0978 113.378 82.4738 113.538 82.8418C112.834 82.8418 112.338 82.6978 112.05 82.4098C111.762 82.1058 111.618 81.7298 111.618 81.2818C111.618 80.7378 111.786 80.1938 112.122 79.6498C112.458 79.0898 112.882 78.5858 113.394 78.1378C113.922 77.6738 114.466 77.3058 115.026 77.0338C115.602 76.7458 116.122 76.6018 116.586 76.6018C117.146 76.6018 117.602 76.8098 117.954 77.2258C118.322 77.6258 118.618 78.1778 118.842 78.8818C119.082 79.5858 119.282 80.3858 119.442 81.2818C119.602 82.1778 119.754 83.1218 119.898 84.1138C120.09 85.3938 120.242 86.4178 120.354 87.1858C120.466 87.9378 120.554 88.5378 120.618 88.9858C120.698 89.4338 120.762 89.8098 120.81 90.1138C120.874 90.4178 120.938 90.7618 121.002 91.1458C121.194 90.3778 121.386 89.5698 121.578 88.7218C121.786 87.8578 121.994 86.9858 122.202 86.1058C122.41 85.2258 122.61 84.3698 122.802 83.5378C123.01 82.6898 123.218 81.8978 123.426 81.1618C123.634 80.4258 123.834 79.7778 124.026 79.2178C124.234 78.6418 124.434 78.1858 124.626 77.8498C124.77 77.5938 124.994 77.3218 125.298 77.0338C125.618 76.7298 126.042 76.5778 126.57 76.5778C126.298 77.2978 125.986 78.1938 125.634 79.2658C125.298 80.3218 124.954 81.4738 124.602 82.7218C124.25 83.9538 123.906 85.2178 123.57 86.5138C123.25 87.7938 122.962 89.0418 122.706 90.2578C122.45 91.4578 122.242 92.5538 122.082 93.5458C121.938 94.5378 121.866 95.3458 121.866 95.9698C121.274 95.9698 120.786 95.8258 120.402 95.5378C120.034 95.2658 119.754 94.7218 119.562 93.9058C119.498 93.6338 119.402 93.1778 119.274 92.5378C119.146 91.8978 119.002 91.1458 118.842 90.2818C118.682 89.4018 118.514 88.4818 118.338 87.5218C118.162 86.5618 117.994 85.6258 117.834 84.7138C117.674 83.7858 117.53 82.9618 117.402 82.2418C117.274 81.5058 117.17 80.9458 117.09 80.5618C116.37 83.1858 115.754 85.4098 115.242 87.2338C114.73 89.0418 114.282 90.5218 113.898 91.6738C113.514 92.8098 113.17 93.6898 112.866 94.3138C112.562 94.9378 112.258 95.3698 111.954 95.6098C111.65 95.8498 111.314 95.9698 110.946 95.9698ZM131.492 95.9698C130.276 95.9698 129.276 95.6818 128.492 95.1058C127.724 94.5298 127.156 93.7858 126.788 92.8738C126.436 91.9618 126.26 91.0178 126.26 90.0418C126.26 88.7778 126.452 87.5138 126.836 86.2498C127.22 84.9698 127.748 83.7538 128.42 82.6018C129.108 81.4498 129.884 80.4258 130.748 79.5298C131.612 78.6338 132.532 77.9298 133.508 77.4178C134.5 76.8898 135.484 76.6258 136.46 76.6258C137.164 76.6258 137.756 76.7938 138.236 77.1298C138.716 77.4498 138.956 78.0098 138.956 78.8098C138.956 79.2898 138.868 79.8258 138.692 80.4178C138.532 81.0098 138.308 81.5858 138.02 82.1458C137.748 82.6898 137.436 83.1378 137.084 83.4898C136.732 83.8418 136.372 84.0178 136.004 84.0178C135.844 84.0178 135.676 83.9618 135.5 83.8498C135.324 83.7378 135.164 83.5458 135.02 83.2738C135.26 83.0018 135.532 82.6738 135.836 82.2898C136.14 81.8898 136.428 81.4738 136.7 81.0418C136.972 80.5938 137.196 80.1618 137.372 79.7458C137.548 79.3138 137.636 78.9378 137.636 78.6178C137.636 78.3298 137.556 78.1058 137.396 77.9458C137.236 77.7698 136.956 77.6818 136.556 77.6818C135.852 77.6818 135.124 77.9458 134.372 78.4738C133.636 79.0018 132.924 79.7138 132.236 80.6098C131.548 81.4898 130.924 82.4818 130.364 83.5858C129.82 84.6738 129.388 85.8018 129.068 86.9698C128.748 88.1218 128.588 89.2178 128.588 90.2578C128.588 91.0258 128.7 91.7618 128.924 92.4658C129.164 93.1538 129.54 93.7138 130.052 94.1458C130.564 94.5938 131.236 94.8178 132.068 94.8178C132.932 94.8178 133.788 94.5778 134.636 94.0978C135.5 93.6178 136.284 92.9858 136.988 92.2018C137.708 91.4178 138.284 90.5778 138.716 89.6818L139.34 90.0898C138.78 91.1618 138.108 92.1458 137.324 93.0418C136.54 93.9218 135.652 94.6258 134.66 95.1538C133.684 95.6978 132.628 95.9698 131.492 95.9698ZM144.988 95.9698C144.06 95.9698 143.212 95.7218 142.444 95.2258C141.676 94.7458 141.068 94.0578 140.62 93.1618C140.172 92.2658 139.948 91.1938 139.948 89.9458C139.948 88.7138 140.14 87.4738 140.524 86.2258C140.908 84.9618 141.436 83.7618 142.108 82.6258C142.78 81.4738 143.564 80.4498 144.46 79.5538C145.356 78.6418 146.308 77.9298 147.316 77.4178C148.34 76.8898 149.388 76.6258 150.46 76.6258C150.62 76.6258 150.852 76.6578 151.156 76.7218C151.476 76.7858 151.788 76.9778 152.092 77.2978C151.996 77.2818 151.884 77.2738 151.756 77.2738C151.644 77.2578 151.524 77.2498 151.396 77.2498C150.564 77.2498 149.724 77.5138 148.876 78.0418C148.028 78.5538 147.22 79.2498 146.452 80.1298C145.684 81.0098 144.996 82.0098 144.388 83.1298C143.796 84.2338 143.324 85.3858 142.972 86.5858C142.62 87.7858 142.444 88.9538 142.444 90.0898C142.444 90.9218 142.556 91.6978 142.78 92.4178C143.004 93.1378 143.364 93.7138 143.86 94.1458C144.356 94.5938 145.012 94.8178 145.828 94.8178C146.708 94.8178 147.532 94.5538 148.3 94.0258C149.068 93.4978 149.764 92.7938 150.388 91.9138C151.012 91.0178 151.548 90.0258 151.996 88.9378C152.444 87.8338 152.788 86.7058 153.028 85.5538C153.268 84.3858 153.388 83.2738 153.388 82.2178C153.388 81.7538 153.356 81.2578 153.292 80.7298C153.228 80.1858 153.116 79.7218 152.956 79.3378C152.812 78.9538 152.596 78.7618 152.308 78.7618C152.036 78.7618 151.74 78.9378 151.42 79.2898C151.1 79.6258 150.788 80.0578 150.484 80.5858C150.18 81.1138 149.908 81.6738 149.668 82.2658C149.444 82.8418 149.284 83.3618 149.188 83.8258C148.644 83.7138 148.252 83.5378 148.012 83.2978C147.788 83.0578 147.676 82.7698 147.676 82.4338C147.676 82.0018 147.828 81.5218 148.132 80.9938C148.436 80.4658 148.828 79.9618 149.308 79.4818C149.804 78.9858 150.316 78.5778 150.844 78.2578C151.388 77.9378 151.892 77.7778 152.356 77.7778C152.836 77.7778 153.22 77.9538 153.508 78.3058C153.812 78.6418 154.044 79.0818 154.204 79.6258C154.364 80.1698 154.476 80.7538 154.54 81.3778C154.604 81.9858 154.636 82.5538 154.636 83.0818C154.636 84.7138 154.436 86.2098 154.036 87.5698C153.636 88.9138 153.092 90.1058 152.404 91.1458C151.732 92.1858 150.972 93.0658 150.124 93.7858C149.292 94.5058 148.428 95.0498 147.532 95.4178C146.652 95.7858 145.804 95.9698 144.988 95.9698Z" fill="#753D4E"/>
<defs>
<filter id="filter0_d_3_59" x="49.3259" y="4.96252" width="46.3778" height="52.3517" filterUnits="userSpaceOnUse" color-interpolation-filters="sRGB">
<feFlood flood-opacity="0" result="BackgroundImageFix"/>
<feColorMatrix in="SourceAlpha" type="matrix" values="0 0 0 0 0 0 0 0 0 0 0 0 0 0 0 0 0 0 127 0" result="hardAlpha"/>
<feOffset/>
<feGaussianBlur stdDeviation="2"/>
<feComposite in2="hardAlpha" operator="out"/>
<feColorMatrix type="matrix" values="0 0 0 0 0 0 0 0 0 0 0 0 0 0 0 0 0 0 0.25 0"/>
<feBlend mode="normal" in2="BackgroundImageFix" result="effect1_dropShadow_3_59"/>
<feBlend mode="normal" in="SourceGraphic" in2="effect1_dropShadow_3_59" result="shape"/>
</filter>
<filter id="filter1_d_3_59" x="43.1305" y="0.644775" width="43.2231" height="56.331" filterUnits="userSpaceOnUse" color-interpolation-filters="sRGB">
<feFlood flood-opacity="0" result="BackgroundImageFix"/>
<feColorMatrix in="SourceAlpha" type="matrix" values="0 0 0 0 0 0 0 0 0 0 0 0 0 0 0 0 0 0 127 0" result="hardAlpha"/>
<feOffset/>
<feGaussianBlur stdDeviation="2"/>
<feComposite in2="hardAlpha" operator="out"/>
<feColorMatrix type="matrix" values="0 0 0 0 0 0 0 0 0 0 0 0 0 0 0 0 0 0 0.25 0"/>
<feBlend mode="normal" in2="BackgroundImageFix" result="effect1_dropShadow_3_59"/>
<feBlend mode="normal" in="SourceGraphic" in2="effect1_dropShadow_3_59" result="shape"/>
</filter>
<filter id="filter2_d_3_59" x="34.9068" y="0.986694" width="39.4884" height="55.7213" filterUnits="userSpaceOnUse" color-interpolation-filters="sRGB">
<feFlood flood-opacity="0" result="BackgroundImageFix"/>
<feColorMatrix in="SourceAlpha" type="matrix" values="0 0 0 0 0 0 0 0 0 0 0 0 0 0 0 0 0 0 127 0" result="hardAlpha"/>
<feOffset/>
<feGaussianBlur stdDeviation="2"/>
<feComposite in2="hardAlpha" operator="out"/>
<feColorMatrix type="matrix" values="0 0 0 0 0 0 0 0 0 0 0 0 0 0 0 0 0 0 0.25 0"/>
<feBlend mode="normal" in2="BackgroundImageFix" result="effect1_dropShadow_3_59"/>
<feBlend mode="normal" in="SourceGraphic" in2="effect1_dropShadow_3_59" result="shape"/>
</filter>
<filter id="filter3_d_3_59" x="26.1164" y="6.51709" width="36.0808" height="50.5823" filterUnits="userSpaceOnUse" color-interpolation-filters="sRGB">
<feFlood flood-opacity="0" result="BackgroundImageFix"/>
<feColorMatrix in="SourceAlpha" type="matrix" values="0 0 0 0 0 0 0 0 0 0 0 0 0 0 0 0 0 0 127 0" result="hardAlpha"/>
<feOffset/>
<feGaussianBlur stdDeviation="2"/>
<feComposite in2="hardAlpha" operator="out"/>
<feColorMatrix type="matrix" values="0 0 0 0 0 0 0 0 0 0 0 0 0 0 0 0 0 0 0.25 0"/>
<feBlend mode="normal" in2="BackgroundImageFix" result="effect1_dropShadow_3_59"/>
<feBlend mode="normal" in="SourceGraphic" in2="effect1_dropShadow_3_59" result="shape"/>
</filter>
<filter id="filter4_d_3_59" x="14.1278" y="12.534" width="46.7546" height="45.3973" filterUnits="userSpaceOnUse" color-interpolation-filters="sRGB">
<feFlood flood-opacity="0" result="BackgroundImageFix"/>
<feColorMatrix in="SourceAlpha" type="matrix" values="0 0 0 0 0 0 0 0 0 0 0 0 0 0 0 0 0 0 127 0" result="hardAlpha"/>
<feOffset/>
<feGaussianBlur stdDeviation="2"/>
<feComposite in2="hardAlpha" operator="out"/>
<feColorMatrix type="matrix" values="0 0 0 0 0 0 0 0 0 0 0 0 0 0 0 0 0 0 0.25 0"/>
<feBlend mode="normal" in2="BackgroundImageFix" result="effect1_dropShadow_3_59"/>
<feBlend mode="normal" in="SourceGraphic" in2="effect1_dropShadow_3_59" result="shape"/>
</filter>
<filter id="filter5_d_3_59" x="5.5159" y="17.2065" width="55.8052" height="43.2345" filterUnits="userSpaceOnUse" color-interpolation-filters="sRGB">
<feFlood flood-opacity="0" result="BackgroundImageFix"/>
<feColorMatrix in="SourceAlpha" type="matrix" values="0 0 0 0 0 0 0 0 0 0 0 0 0 0 0 0 0 0 127 0" result="hardAlpha"/>
<feOffset/>
<feGaussianBlur stdDeviation="2"/>
<feComposite in2="hardAlpha" operator="out"/>
<feColorMatrix type="matrix" values="0 0 0 0 0 0 0 0 0 0 0 0 0 0 0 0 0 0 0.25 0"/>
<feBlend mode="normal" in2="BackgroundImageFix" result="effect1_dropShadow_3_59"/>
<feBlend mode="normal" in="SourceGraphic" in2="effect1_dropShadow_3_59" result="shape"/>
</filter>
<filter id="filter6_d_3_59" x="0.820007" y="26.4093" width="60.3603" height="40.2926" filterUnits="userSpaceOnUse" color-interpolation-filters="sRGB">
<feFlood flood-opacity="0" result="BackgroundImageFix"/>
<feColorMatrix in="SourceAlpha" type="matrix" values="0 0 0 0 0 0 0 0 0 0 0 0 0 0 0 0 0 0 127 0" result="hardAlpha"/>
<feOffset/>
<feGaussianBlur stdDeviation="2"/>
<feComposite in2="hardAlpha" operator="out"/>
<feColorMatrix type="matrix" values="0 0 0 0 0 0 0 0 0 0 0 0 0 0 0 0 0 0 0.25 0"/>
<feBlend mode="normal" in2="BackgroundImageFix" result="effect1_dropShadow_3_59"/>
<feBlend mode="normal" in="SourceGraphic" in2="effect1_dropShadow_3_59" result="shape"/>
</filter>
<filter id="filter7_d_3_59" x="0.602112" y="36.8619" width="59.9449" height="36.8407" filterUnits="userSpaceOnUse" color-interpolation-filters="sRGB">
<feFlood flood-opacity="0" result="BackgroundImageFix"/>
<feColorMatrix in="SourceAlpha" type="matrix" values="0 0 0 0 0 0 0 0 0 0 0 0 0 0 0 0 0 0 127 0" result="hardAlpha"/>
<feOffset/>
<feGaussianBlur stdDeviation="2"/>
<feComposite in2="hardAlpha" operator="out"/>
<feColorMatrix type="matrix" values="0 0 0 0 0 0 0 0 0 0 0 0 0 0 0 0 0 0 0.25 0"/>
<feBlend mode="normal" in2="BackgroundImageFix" result="effect1_dropShadow_3_59"/>
<feBlend mode="normal" in="SourceGraphic" in2="effect1_dropShadow_3_59" result="shape"/>
</filter>
<filter id="filter8_d_3_59" x="6.83466" y="49.0035" width="54.5981" height="33.7539" filterUnits="userSpaceOnUse" color-interpolation-filters="sRGB">
<feFlood flood-opacity="0" result="BackgroundImageFix"/>
<feColorMatrix in="SourceAlpha" type="matrix" values="0 0 0 0 0 0 0 0 0 0 0 0 0 0 0 0 0 0 127 0" result="hardAlpha"/>
<feOffset/>
<feGaussianBlur stdDeviation="2"/>
<feComposite in2="hardAlpha" operator="out"/>
<feColorMatrix type="matrix" values="0 0 0 0 0 0 0 0 0 0 0 0 0 0 0 0 0 0 0.25 0"/>
<feBlend mode="normal" in2="BackgroundImageFix" result="effect1_dropShadow_3_59"/>
<feBlend mode="normal" in="SourceGraphic" in2="effect1_dropShadow_3_59" result="shape"/>
</filter>
<filter id="filter9_d_3_59" x="13.3449" y="49.2282" width="48.6819" height="44.199" filterUnits="userSpaceOnUse" color-interpolation-filters="sRGB">
<feFlood flood-opacity="0" result="BackgroundImageFix"/>
<feColorMatrix in="SourceAlpha" type="matrix" values="0 0 0 0 0 0 0 0 0 0 0 0 0 0 0 0 0 0 127 0" result="hardAlpha"/>
<feOffset/>
<feGaussianBlur stdDeviation="2"/>
<feComposite in2="hardAlpha" operator="out"/>
<feColorMatrix type="matrix" values="0 0 0 0 0 0 0 0 0 0 0 0 0 0 0 0 0 0 0.25 0"/>
<feBlend mode="normal" in2="BackgroundImageFix" result="effect1_dropShadow_3_59"/>
<feBlend mode="normal" in="SourceGraphic" in2="effect1_dropShadow_3_59" result="shape"/>
</filter>
<filter id="filter10_d_3_59" x="18.4192" y="49.1797" width="46.3778" height="52.3517" filterUnits="userSpaceOnUse" color-interpolation-filters="sRGB">
<feFlood flood-opacity="0" result="BackgroundImageFix"/>
<feColorMatrix in="SourceAlpha" type="matrix" values="0 0 0 0 0 0 0 0 0 0 0 0 0 0 0 0 0 0 127 0" result="hardAlpha"/>
<feOffset/>
<feGaussianBlur stdDeviation="2"/>
<feComposite in2="hardAlpha" operator="out"/>
<feColorMatrix type="matrix" values="0 0 0 0 0 0 0 0 0 0 0 0 0 0 0 0 0 0 0.25 0"/>
<feBlend mode="normal" in2="BackgroundImageFix" result="effect1_dropShadow_3_59"/>
<feBlend mode="normal" in="SourceGraphic" in2="effect1_dropShadow_3_59" result="shape"/>
</filter>
<filter id="filter11_d_3_59" x="51.3358" y="47.3677" width="11.5449" height="11.2663" filterUnits="userSpaceOnUse" color-interpolation-filters="sRGB">
<feFlood flood-opacity="0" result="BackgroundImageFix"/>
<feColorMatrix in="SourceAlpha" type="matrix" values="0 0 0 0 0 0 0 0 0 0 0 0 0 0 0 0 0 0 127 0" result="hardAlpha"/>
<feOffset/>
<feGaussianBlur stdDeviation="2"/>
<feComposite in2="hardAlpha" operator="out"/>
<feColorMatrix type="matrix" values="0 0 0 0 0 0 0 0 0 0 0 0 0 0 0 0 0 0 0.25 0"/>
<feBlend mode="normal" in2="BackgroundImageFix" result="effect1_dropShadow_3_59"/>
<feBlend mode="normal" in="SourceGraphic" in2="effect1_dropShadow_3_59" result="shape"/>
</filter>
</defs>
</svg>
